<?xml version="1.0" encoding="UTF-8"?>
<!DOCTYPE svg PUBLIC "-//W3C//DTD SVG 1.1//EN" "http://www.w3.org/Graphics/SVG/1.1/DTD/svg11.dtd">
<svg xmlns="http://www.w3.org/2000/svg" version="1.1" width="512px" height="512px" style="shape-rendering:geometricPrecision; text-rendering:geometricPrecision; image-rendering:optimizeQuality; fill-rule:evenodd; clip-rule:evenodd" xmlns:xlink="http://www.w3.org/1999/xlink">
<g><path style="opacity:0.962" fill="#fdcb57" d="M -0.5,69.5 C -0.5,66.8333 -0.5,64.1667 -0.5,61.5C 14.2839,35.916 36.2839,20.0827 65.5,14C 76.4944,12.3107 83.1611,16.9773 85.5,28C 84.655,34.6981 81.3217,39.6981 75.5,43C 54.1925,47.5607 37.3592,58.7274 25,76.5C 14.0514,82.8058 5.55144,80.4724 -0.5,69.5 Z"/></g>
<g><path style="opacity:0.962" fill="#fdcb57" d="M 511.5,61.5 C 511.5,64.1667 511.5,66.8333 511.5,69.5C 505.725,80.1969 497.392,82.6969 486.5,77C 474.068,58.9415 457.068,47.6082 435.5,43C 425.966,37.0791 423.799,29.2458 429,19.5C 433.246,14.0845 438.746,12.2512 445.5,14C 474.716,20.0827 496.716,35.916 511.5,61.5 Z"/></g>
<g><path style="opacity:0.964" fill="#fdca57" d="M 109.5,55.5 C 117.856,54.7618 124.023,58.0951 128,65.5C 129.554,75.2165 125.72,82.0499 116.5,86C 90.9381,90.5307 69.7714,102.697 53,122.5C 44.7795,133.054 36.9461,143.887 29.5,155C 21.108,159.241 13.9414,157.741 8,150.5C 6.45482,145.953 6.12148,141.287 7,136.5C 11.7804,126.058 17.7804,116.391 25,107.5C 33.2208,99.2792 41.3874,91.1126 49.5,83C 58.2962,76.2114 67.6295,70.2114 77.5,65C 88.0097,60.878 98.6764,57.7113 109.5,55.5 Z"/></g>
<g><path style="opacity:0.965" fill="#fdcb57" d="M 393.5,55.5 C 419.253,57.2157 441.92,66.3823 461.5,83C 469.613,91.1126 477.779,99.2792 486,107.5C 493.22,116.391 499.22,126.058 504,136.5C 506.952,146.765 503.452,153.598 493.5,157C 489.318,157.611 485.318,156.944 481.5,155C 474.054,143.887 466.221,133.054 458,122.5C 441.229,102.697 420.062,90.5307 394.5,86C 385.28,82.0499 381.446,75.2165 383,65.5C 385.762,61.2339 389.262,57.9006 393.5,55.5 Z"/></g>
<g><path style="opacity:0.995" fill="#dd2e43" d="M 139.5,98.5 C 187.526,94.8585 226.192,111.859 255.5,149.5C 284.789,111.701 323.456,94.8673 371.5,99C 423.779,106.944 458.945,135.777 477,185.5C 484.22,211.802 484.22,238.135 477,264.5C 475.274,272.677 472.941,280.677 470,288.5C 460.835,311.164 449.835,332.831 437,353.5C 425.336,368.498 413.669,383.498 402,398.5C 388.221,412.279 374.387,426.113 360.5,440C 343.013,453.576 325.346,466.91 307.5,480C 291.874,489.313 275.54,497.313 258.5,504C 256.5,504.667 254.5,504.667 252.5,504C 231.125,495.148 210.792,484.481 191.5,472C 177.787,460.619 163.787,449.619 149.5,439C 139.637,428.803 129.471,418.97 119,409.5C 113.333,403.167 107.667,396.833 102,390.5C 93.0479,377.881 83.7146,365.547 74,353.5C 58.7327,329.297 46.3993,303.63 37,276.5C 16.6063,214.541 31.1063,162.708 80.5,121C 98.5382,108.971 118.205,101.471 139.5,98.5 Z"/></g>
</svg>
